<svg width="10" height="12" viewBox="0 0 10 12" fill="none" xmlns="http://www.w3.org/2000/svg">
<path d="M9.85403 7.35375L5.35403 11.8538C5.30759 11.9002 5.25245 11.9371 5.19175 11.9623C5.13105 11.9874 5.06599 12.0004 5.00028 12.0004C4.93457 12.0004 4.86951 11.9874 4.80881 11.9623C4.74811 11.9371 4.69296 11.9002 4.64653 11.8538L0.146528 7.35375C0.0527077 7.25993 0 7.13268 0 7C0 6.86732 0.0527077 6.74007 0.146528 6.64625C0.240348 6.55243 0.367596 6.49972 0.500278 6.49972C0.63296 6.49972 0.760208 6.55243 0.854028 6.64625L4.50028 10.2931V0.5C4.50028 0.367392 4.55296 0.240215 4.64672 0.146447C4.74049 0.0526785 4.86767 0 5.00028 0C5.13289 0 5.26006 0.0526785 5.35383 0.146447C5.4476 0.240215 5.50028 0.367392 5.50028 0.5V10.2931L9.14653 6.64625C9.24035 6.55243 9.3676 6.49972 9.50028 6.49972C9.63296 6.49972 9.76021 6.55243 9.85403 6.64625C9.94785 6.74007 10.0006 6.86732 10.0006 7C10.0006 7.13268 9.94785 7.25993 9.85403 7.35375Z" fill="white"/>
</svg>
