<svg width="24" height="24" viewBox="0 0 24 24" fill="none" xmlns="http://www.w3.org/2000/svg">
<path d="M23.25 11.625C23.249 10.6316 22.9667 9.65871 22.4358 8.81903C21.9049 7.97936 21.1471 7.30719 20.25 6.88031V6.75C20.2491 5.78364 19.9372 4.84323 19.3604 4.06792C18.7835 3.2926 17.9725 2.72357 17.0471 2.44503C16.1218 2.16648 15.1313 2.19321 14.2224 2.52126C13.3134 2.84931 12.5342 3.46126 12 4.26656C11.4658 3.46126 10.6866 2.84931 9.77764 2.52126C8.86866 2.19321 7.87823 2.16648 6.95289 2.44503C6.02755 2.72357 5.21646 3.2926 4.63962 4.06792C4.06279 4.84323 3.75087 5.78364 3.75 6.75V6.88031C2.85219 7.30602 2.09362 7.97776 1.56245 8.81749C1.03127 9.65722 0.749298 10.6304 0.749298 11.6241C0.749298 12.6177 1.03127 13.5909 1.56245 14.4306C2.09362 15.2704 2.85219 15.9421 3.75 16.3678V16.5C3.75087 17.4664 4.06279 18.4068 4.63962 19.1821C5.21646 19.9574 6.02755 20.5264 6.95289 20.805C7.87823 21.0835 8.86866 21.0568 9.77764 20.7287C10.6866 20.4007 11.4658 19.7887 12 18.9834C12.5342 19.7887 13.3134 20.4007 14.2224 20.7287C15.1313 21.0568 16.1218 21.0835 17.0471 20.805C17.9725 20.5264 18.7835 19.9574 19.3604 19.1821C19.9372 18.4068 20.2491 17.4664 20.25 16.5V16.3678C21.1469 15.9413 21.9047 15.2694 22.4356 14.4301C22.9665 13.5907 23.2489 12.6182 23.25 11.625ZM8.25 19.5C7.51026 19.4999 6.79665 19.2265 6.24621 18.7323C5.69578 18.2381 5.34734 17.558 5.26781 16.8225C5.51035 16.8571 5.75501 16.8746 6 16.875H6.75C6.94891 16.875 7.13968 16.796 7.28033 16.6553C7.42098 16.5147 7.5 16.3239 7.5 16.125C7.5 15.9261 7.42098 15.7353 7.28033 15.5947C7.13968 15.454 6.94891 15.375 6.75 15.375H6C5.11459 15.376 4.25737 15.0637 3.58011 14.4934C2.90284 13.9231 2.44923 13.1315 2.29957 12.2588C2.14992 11.3862 2.31388 10.4887 2.76242 9.72529C3.21096 8.9619 3.91515 8.38184 4.75031 8.08781C4.89644 8.03608 5.02295 7.94033 5.11243 7.81374C5.20192 7.68716 5.24998 7.53596 5.25 7.38094V6.75C5.25 5.95435 5.56607 5.19129 6.12868 4.62868C6.69129 4.06607 7.45435 3.75 8.25 3.75C9.04565 3.75 9.80871 4.06607 10.3713 4.62868C10.9339 5.19129 11.25 5.95435 11.25 6.75V13.1494C10.4264 12.4086 9.35769 11.9992 8.25 12C8.05109 12 7.86032 12.079 7.71967 12.2197C7.57902 12.3603 7.5 12.5511 7.5 12.75C7.5 12.9489 7.57902 13.1397 7.71967 13.2803C7.86032 13.421 8.05109 13.5 8.25 13.5C9.04565 13.5 9.80871 13.8161 10.3713 14.3787C10.9339 14.9413 11.25 15.7044 11.25 16.5C11.25 17.2956 10.9339 18.0587 10.3713 18.6213C9.80871 19.1839 9.04565 19.5 8.25 19.5ZM18 15.375H17.25C17.0511 15.375 16.8603 15.454 16.7197 15.5947C16.579 15.7353 16.5 15.9261 16.5 16.125C16.5 16.3239 16.579 16.5147 16.7197 16.6553C16.8603 16.796 17.0511 16.875 17.25 16.875H18C18.245 16.8746 18.4897 16.8571 18.7322 16.8225C18.6699 17.3988 18.442 17.9446 18.076 18.3941C17.7101 18.8436 17.2218 19.1774 16.6701 19.3553C16.1185 19.5331 15.5271 19.5474 14.9676 19.3963C14.408 19.2452 13.9042 18.9352 13.517 18.5039C13.1298 18.0726 12.8759 17.5383 12.7859 16.9657C12.696 16.3931 12.7738 15.8067 13.01 15.2775C13.2462 14.7482 13.6307 14.2986 14.1169 13.9832C14.6032 13.6677 15.1704 13.4999 15.75 13.5C15.9489 13.5 16.1397 13.421 16.2803 13.2803C16.421 13.1397 16.5 12.9489 16.5 12.75C16.5 12.5511 16.421 12.3603 16.2803 12.2197C16.1397 12.079 15.9489 12 15.75 12C14.6423 11.9992 13.5736 12.4086 12.75 13.1494V6.75C12.75 5.95435 13.0661 5.19129 13.6287 4.62868C14.1913 4.06607 14.9544 3.75 15.75 3.75C16.5457 3.75 17.3087 4.06607 17.8713 4.62868C18.4339 5.19129 18.75 5.95435 18.75 6.75V7.38094C18.75 7.53596 18.7981 7.68716 18.8876 7.81374C18.9771 7.94033 19.1036 8.03608 19.2497 8.08781C20.0849 8.38184 20.789 8.9619 21.2376 9.72529C21.6861 10.4887 21.8501 11.3862 21.7004 12.2588C21.5508 13.1315 21.0972 13.9231 20.4199 14.4934C19.7426 15.0637 18.8854 15.376 18 15.375ZM19.5 10.5C19.5 10.6989 19.421 10.8897 19.2803 11.0303C19.1397 11.171 18.9489 11.25 18.75 11.25H18.375C17.4799 11.25 16.6215 10.8944 15.9885 10.2615C15.3556 9.62855 15 8.77011 15 7.875V7.5C15 7.30109 15.079 7.11032 15.2197 6.96967C15.3603 6.82902 15.5511 6.75 15.75 6.75C15.9489 6.75 16.1397 6.82902 16.2803 6.96967C16.421 7.11032 16.5 7.30109 16.5 7.5V7.875C16.5 8.37228 16.6975 8.84919 17.0492 9.20083C17.4008 9.55246 17.8777 9.75 18.375 9.75H18.75C18.9489 9.75 19.1397 9.82902 19.2803 9.96967C19.421 10.1103 19.5 10.3011 19.5 10.5ZM5.625 11.25H5.25C5.05109 11.25 4.86032 11.171 4.71967 11.0303C4.57902 10.8897 4.5 10.6989 4.5 10.5C4.5 10.3011 4.57902 10.1103 4.71967 9.96967C4.86032 9.82902 5.05109 9.75 5.25 9.75H5.625C6.12228 9.75 6.5992 9.55246 6.95083 9.20083C7.30246 8.84919 7.5 8.37228 7.5 7.875V7.5C7.5 7.30109 7.57902 7.11032 7.71967 6.96967C7.86032 6.82902 8.05109 6.75 8.25 6.75C8.44891 6.75 8.63968 6.82902 8.78033 6.96967C8.92098 7.11032 9 7.30109 9 7.5V7.875C9 8.77011 8.64442 9.62855 8.01149 10.2615C7.37855 10.8944 6.52011 11.25 5.625 11.25Z" fill="#FF8230"/>
</svg>
