<svg width="22" height="22" viewBox="0 0 22 22" fill="none" xmlns="http://www.w3.org/2000/svg">
<path d="M21.2168 5.26371C21.4658 4.4603 21.5457 3.614 21.4514 2.77818C21.3571 1.94235 21.0906 1.13513 20.6688 0.40742C20.5973 0.283526 20.4944 0.180649 20.3705 0.109132C20.2466 0.0376156 20.106 -1.87951e-05 19.963 1.33338e-05C19.0139 -0.00197321 18.0775 0.218041 17.2286 0.642479C16.3798 1.06692 15.6419 1.68401 15.0741 2.44446H12.6296C12.0618 1.68401 11.3239 1.06692 10.4751 0.642479C9.62619 0.218041 8.68981 -0.00197321 7.74074 1.33338e-05C7.59768 -1.87951e-05 7.45713 0.0376156 7.33323 0.109132C7.20933 0.180649 7.10644 0.283526 7.03491 0.40742C6.61309 1.13513 6.34662 1.94235 6.25231 2.77818C6.158 3.614 6.23789 4.4603 6.48694 5.26371C5.98352 6.1424 5.71385 7.13552 5.7037 8.14816V8.96297C5.70542 10.3416 6.2059 11.6731 7.11274 12.7116C8.01958 13.75 9.27153 14.4253 10.6374 14.6127C10.0799 15.3261 9.77725 16.2057 9.77778 17.1111V17.9259H7.33333C6.68503 17.9259 6.06327 17.6684 5.60485 17.21C5.14643 16.7515 4.88889 16.1298 4.88889 15.4815C4.88889 14.9465 4.78351 14.4167 4.57877 13.9224C4.37403 13.4281 4.07393 12.979 3.69562 12.6007C3.31731 12.2224 2.86818 11.9223 2.3739 11.7175C1.87961 11.5128 1.34983 11.4074 0.814815 11.4074C0.598713 11.4074 0.391461 11.4933 0.238654 11.6461C0.0858463 11.7989 0 12.0061 0 12.2222C0 12.4383 0.0858463 12.6456 0.238654 12.7984C0.391461 12.9512 0.598713 13.037 0.814815 13.037C1.46312 13.037 2.08488 13.2946 2.5433 13.753C3.00172 14.2114 3.25926 14.8332 3.25926 15.4815C3.25926 16.562 3.68849 17.5983 4.45253 18.3623C5.21657 19.1263 6.25282 19.5556 7.33333 19.5556H9.77778V21.1852C9.77778 21.4013 9.86362 21.6085 10.0164 21.7613C10.1692 21.9142 10.3765 22 10.5926 22C10.8087 22 11.0159 21.9142 11.1688 21.7613C11.3216 21.6085 11.4074 21.4013 11.4074 21.1852V17.1111C11.4074 16.4628 11.6649 15.8411 12.1234 15.3826C12.5818 14.9242 13.2035 14.6667 13.8519 14.6667C14.5002 14.6667 15.1219 14.9242 15.5803 15.3826C16.0388 15.8411 16.2963 16.4628 16.2963 17.1111V21.1852C16.2963 21.4013 16.3821 21.6085 16.5349 21.7613C16.6878 21.9142 16.895 22 17.1111 22C17.3272 22 17.5345 21.9142 17.6873 21.7613C17.8401 21.6085 17.9259 21.4013 17.9259 21.1852V17.1111C17.9265 16.2057 17.6238 15.3261 17.0663 14.6127C18.4322 14.4253 19.6841 13.75 20.591 12.7116C21.4978 11.6731 21.9983 10.3416 22 8.96297V8.14816C21.9899 7.13552 21.7202 6.1424 21.2168 5.26371ZM20.3704 8.96297C20.3704 10.0435 19.9411 11.0797 19.1771 11.8438C18.4131 12.6078 17.3768 13.037 16.2963 13.037H11.4074C10.3269 13.037 9.29064 12.6078 8.5266 11.8438C7.76256 11.0797 7.33333 10.0435 7.33333 8.96297V8.14816C7.34332 7.33337 7.58727 6.53861 8.03611 5.85853C8.11978 5.74824 8.17398 5.61846 8.19358 5.48142C8.21318 5.34438 8.19755 5.20461 8.14815 5.07529C7.93591 4.52793 7.83377 3.94408 7.84758 3.35718C7.86138 2.77028 7.99087 2.19187 8.22861 1.6551C8.89545 1.72684 9.5376 1.94774 10.1074 2.30143C10.6773 2.65511 11.1602 3.13252 11.5205 3.69825C11.5939 3.81304 11.6949 3.90759 11.8143 3.97325C11.9337 4.03891 12.0676 4.07358 12.2039 4.07408H15.4988C15.6356 4.07409 15.7701 4.03966 15.8901 3.97398C16.0101 3.9083 16.1116 3.81348 16.1853 3.69825C16.5455 3.13247 17.0284 2.65503 17.5982 2.30133C18.1681 1.94764 18.8103 1.72677 19.4771 1.6551C19.7145 2.19201 19.8437 2.77048 19.8571 3.35738C19.8706 3.94428 19.7681 4.52807 19.5556 5.07529C19.5063 5.20337 19.4898 5.34173 19.5076 5.47779C19.5254 5.61386 19.5769 5.74333 19.6574 5.85445C20.1107 6.53454 20.3582 7.33093 20.3704 8.14816V8.96297Z" fill="#9A9797"/>
</svg>
