<svg width="13" height="13" viewBox="0 0 13 13" fill="none" xmlns="http://www.w3.org/2000/svg">
<path d="M12.2057 3.02813C12.3489 2.56594 12.3949 2.07908 12.3406 1.59824C12.2864 1.1174 12.1331 0.653024 11.8904 0.234383C11.8493 0.163108 11.7901 0.103924 11.7188 0.062782C11.6475 0.0216396 11.5667 -1.08125e-05 11.4844 7.67071e-06C10.9384 -0.00113516 10.3997 0.125436 9.91136 0.369608C9.42302 0.61378 8.99855 0.968785 8.67188 1.40626H7.26562C6.93895 0.968785 6.51448 0.61378 6.02614 0.369608C5.53779 0.125436 4.99911 -0.00113516 4.45312 7.67071e-06C4.37082 -1.08125e-05 4.28997 0.0216396 4.21869 0.062782C4.14741 0.103924 4.08822 0.163108 4.04707 0.234383C3.8044 0.653024 3.65111 1.1174 3.59685 1.59824C3.5426 2.07908 3.58856 2.56594 3.73184 3.02813C3.44222 3.53363 3.28709 4.10495 3.28125 4.68751V5.15626C3.28224 5.94938 3.57016 6.71537 4.09185 7.31277C4.61354 7.91018 5.33377 8.29865 6.11953 8.40645C5.79879 8.81688 5.6247 9.32287 5.625 9.84376V10.3125H4.21875C3.84579 10.3125 3.4881 10.1643 3.22438 9.90063C2.96066 9.6369 2.8125 9.27922 2.8125 8.90626C2.8125 8.59847 2.75188 8.2937 2.63409 8.00934C2.51631 7.72499 2.34367 7.46661 2.12603 7.24898C1.90839 7.03134 1.65002 6.8587 1.36566 6.74091C1.08131 6.62313 0.776536 6.56251 0.46875 6.56251C0.34443 6.56251 0.225201 6.61189 0.137294 6.6998C0.049386 6.78771 0 6.90694 0 7.03126C0 7.15558 0.049386 7.27481 0.137294 7.36271C0.225201 7.45062 0.34443 7.50001 0.46875 7.50001C0.841711 7.50001 1.1994 7.64817 1.46312 7.91189C1.72684 8.17561 1.875 8.5333 1.875 8.90626C1.875 9.52786 2.12193 10.124 2.56147 10.5635C3.00101 11.0031 3.59715 11.25 4.21875 11.25H5.625V12.1875C5.625 12.3118 5.67439 12.4311 5.76229 12.519C5.8502 12.6069 5.96943 12.6563 6.09375 12.6563C6.21807 12.6563 6.3373 12.6069 6.42521 12.519C6.51311 12.4311 6.5625 12.3118 6.5625 12.1875V9.84376C6.5625 9.4708 6.71066 9.11311 6.97438 8.84939C7.2381 8.58567 7.59579 8.43751 7.96875 8.43751C8.34171 8.43751 8.6994 8.58567 8.96312 8.84939C9.22684 9.11311 9.375 9.4708 9.375 9.84376V12.1875C9.375 12.3118 9.42439 12.4311 9.51229 12.519C9.6002 12.6069 9.71943 12.6563 9.84375 12.6563C9.96807 12.6563 10.0873 12.6069 10.1752 12.519C10.2631 12.4311 10.3125 12.3118 10.3125 12.1875V9.84376C10.3128 9.32287 10.1387 8.81688 9.81797 8.40645C10.6037 8.29865 11.324 7.91018 11.8457 7.31277C12.3673 6.71537 12.6553 5.94938 12.6562 5.15626V4.68751C12.6504 4.10495 12.4953 3.53363 12.2057 3.02813ZM11.7188 5.15626C11.7188 5.77786 11.4718 6.374 11.0323 6.81354C10.5927 7.25308 9.9966 7.50001 9.375 7.50001H6.5625C5.9409 7.50001 5.34476 7.25308 4.90522 6.81354C4.46568 6.374 4.21875 5.77786 4.21875 5.15626V4.68751C4.2245 4.21877 4.36483 3.76156 4.62305 3.37032C4.67118 3.30687 4.70236 3.23221 4.71364 3.15338C4.72491 3.07454 4.71592 2.99413 4.6875 2.91973C4.5654 2.60485 4.50664 2.26897 4.51459 1.93133C4.52253 1.5937 4.59702 1.26095 4.73379 0.952156C5.11741 0.993425 5.48683 1.1205 5.81465 1.32398C6.14248 1.52745 6.4203 1.80209 6.62754 2.12755C6.66977 2.19358 6.72789 2.24798 6.79657 2.28575C6.86526 2.32352 6.94232 2.34347 7.0207 2.34376H8.91621C8.99489 2.34376 9.07231 2.32396 9.14133 2.28617C9.21035 2.24839 9.26874 2.19383 9.31113 2.12755C9.51834 1.80206 9.79615 1.52739 10.124 1.32392C10.4518 1.12045 10.8212 0.993384 11.2049 0.952156C11.3415 1.26103 11.4158 1.59382 11.4235 1.93145C11.4312 2.26908 11.3723 2.60493 11.25 2.91973C11.2217 2.99342 11.2122 3.07301 11.2224 3.15129C11.2327 3.22957 11.2623 3.30405 11.3086 3.36798C11.5694 3.75922 11.7118 4.21737 11.7188 4.68751V5.15626Z" fill="white"/>
</svg>
