<svg width="12" height="12" viewBox="0 0 12 12" fill="none" xmlns="http://www.w3.org/2000/svg">
<path d="M11.7524 0.250854C11.6446 0.14314 11.51 0.0661066 11.3625 0.0276888C11.215 -0.010729 11.0599 -0.00914251 10.9133 0.0322849H10.9052L0.619945 3.15225C0.452968 3.20035 0.304556 3.29805 0.194376 3.43239C0.0841952 3.56673 0.0174475 3.73136 0.00297801 3.90448C-0.0114914 4.0776 0.0270004 4.25103 0.113353 4.40179C0.199705 4.55254 0.329841 4.67351 0.486516 4.74865L5.03703 6.96434L7.25012 11.5109C7.31896 11.6577 7.4284 11.7818 7.56551 11.8685C7.70262 11.9552 7.86168 12.0008 8.0239 12C8.04855 12 8.0732 11.9989 8.09785 11.9968C8.27088 11.9828 8.43549 11.9162 8.56958 11.806C8.70368 11.6958 8.80085 11.5472 8.84805 11.3802L11.9668 1.09781C11.9668 1.09513 11.9668 1.09245 11.9668 1.08977C12.0087 0.943504 12.011 0.788701 11.9733 0.641266C11.9357 0.493831 11.8594 0.359079 11.7524 0.250854ZM8.02873 11.1348L8.02605 11.1423V11.1386L5.8794 6.7297L8.45152 4.1583C8.52852 4.07728 8.57081 3.96939 8.56938 3.85763C8.56795 3.74588 8.52291 3.63911 8.44386 3.56008C8.36481 3.48105 8.258 3.43602 8.14622 3.43459C8.03443 3.43316 7.92651 3.47544 7.84546 3.55242L5.27334 6.12381L0.861617 3.97777H0.857866H0.865368L11.1458 0.857274L8.02873 11.1348Z" fill="white"/>
</svg>
