<svg width="35" height="35" viewBox="0 0 35 35" fill="none" xmlns="http://www.w3.org/2000/svg">
<path d="M12.0312 15.3125C12.0312 15.0224 12.1465 14.7442 12.3516 14.5391C12.5567 14.334 12.8349 14.2188 13.125 14.2188H24.0625C24.3526 14.2188 24.6308 14.334 24.8359 14.5391C25.041 14.7442 25.1562 15.0224 25.1562 15.3125C25.1562 15.6026 25.041 15.8808 24.8359 16.0859C24.6308 16.291 24.3526 16.4062 24.0625 16.4062H13.125C12.8349 16.4062 12.5567 16.291 12.3516 16.0859C12.1465 15.8808 12.0312 15.6026 12.0312 15.3125ZM13.125 20.7812H24.0625C24.3526 20.7812 24.6308 20.666 24.8359 20.4609C25.041 20.2558 25.1562 19.9776 25.1562 19.6875C25.1562 19.3974 25.041 19.1192 24.8359 18.9141C24.6308 18.709 24.3526 18.5938 24.0625 18.5938H13.125C12.8349 18.5938 12.5567 18.709 12.3516 18.9141C12.1465 19.1192 12.0312 19.3974 12.0312 19.6875C12.0312 19.9776 12.1465 20.2558 12.3516 20.4609C12.5567 20.666 12.8349 20.7812 13.125 20.7812ZM31.7188 8.75V25.1562C31.7188 26.0265 31.373 26.8611 30.7577 27.4764C30.1423 28.0918 29.3077 28.4375 28.4375 28.4375H4.375C3.50736 28.4375 2.67503 28.0939 2.06011 27.4818C1.44518 26.8697 1.09773 26.0389 1.09375 25.1713V12.0312C1.09375 11.7412 1.20898 11.463 1.4141 11.2579C1.61922 11.0527 1.89742 10.9375 2.1875 10.9375C2.47758 10.9375 2.75578 11.0527 2.9609 11.2579C3.16602 11.463 3.28125 11.7412 3.28125 12.0312V25.1562C3.28125 25.4463 3.39648 25.7245 3.6016 25.9296C3.80672 26.1348 4.08492 26.25 4.375 26.25C4.66508 26.25 4.94328 26.1348 5.1484 25.9296C5.35352 25.7245 5.46875 25.4463 5.46875 25.1562V8.75C5.46875 8.16984 5.69922 7.61344 6.10945 7.2032C6.51969 6.79297 7.07609 6.5625 7.65625 6.5625H29.5312C30.1114 6.5625 30.6678 6.79297 31.078 7.2032C31.4883 7.61344 31.7188 8.16984 31.7188 8.75ZM29.5312 8.75H7.65625V25.1562C7.65679 25.5289 7.59344 25.8988 7.46895 26.25H28.4375C28.7276 26.25 29.0058 26.1348 29.2109 25.9296C29.416 25.7245 29.5312 25.4463 29.5312 25.1562V8.75Z" fill="#FF8230"/>
</svg>
