<svg width="24" height="24" viewBox="0 0 24 24" fill="none" xmlns="http://www.w3.org/2000/svg">
<path d="M20.9859 4.41751C20.9637 4.05182 20.8084 3.7069 20.5494 3.44784C20.2903 3.18878 19.9454 3.03348 19.5797 3.01126C18.4003 2.94095 15.3862 3.04876 12.885 5.54907L12.4397 6.00001H6.97124C6.7735 5.9989 6.57752 6.03711 6.39468 6.11243C6.21185 6.18776 6.04581 6.29868 5.90624 6.43876L2.69062 9.65626C2.49341 9.85333 2.35503 10.1015 2.29101 10.3728C2.22698 10.6442 2.23984 10.928 2.32815 11.1924C2.41646 11.4568 2.57672 11.6914 2.79094 11.8699C3.00517 12.0483 3.26488 12.1635 3.54093 12.2025L7.14749 12.7059L11.2922 16.8506L11.7956 20.4591C11.8343 20.7351 11.9495 20.9949 12.1281 21.2089C12.3067 21.423 12.5416 21.5828 12.8062 21.6703C12.9604 21.7218 13.1218 21.7481 13.2844 21.7481C13.4812 21.7485 13.6761 21.7099 13.8579 21.6346C14.0397 21.5593 14.2048 21.4488 14.3437 21.3094L17.5612 18.0938C17.7013 17.9542 17.8122 17.7882 17.8876 17.6053C17.9629 17.4225 18.0011 17.2265 18 17.0288V11.5603L18.4472 11.1131C20.9484 8.61188 21.0562 5.59782 20.9859 4.41751ZM6.97124 7.50001H10.9397L7.23374 11.205L3.74999 10.7194L6.97124 7.50001ZM13.9472 6.61407C14.6679 5.88895 15.535 5.32595 16.4906 4.96268C17.4462 4.59941 18.4684 4.44423 19.4887 4.50751C19.5545 5.52843 19.4009 6.55159 19.0384 7.50823C18.6758 8.46487 18.1127 9.33282 17.3869 10.0538L12 15.4388L8.56124 12L13.9472 6.61407ZM16.5 17.0288L13.2816 20.25L12.795 16.7653L16.5 13.0603V17.0288ZM9.54749 17.9194C9.12562 18.8438 7.71468 21 3.74999 21C3.55108 21 3.36031 20.921 3.21966 20.7803C3.07901 20.6397 2.99999 20.4489 2.99999 20.25C2.99999 16.2853 5.15624 14.8744 6.08062 14.4516C6.17024 14.4107 6.26704 14.3879 6.36549 14.3844C6.46394 14.381 6.5621 14.3969 6.65438 14.4314C6.74666 14.4659 6.83124 14.5182 6.9033 14.5853C6.97537 14.6525 7.03349 14.7332 7.07437 14.8228C7.11524 14.9124 7.13806 15.0093 7.14152 15.1077C7.14499 15.2061 7.12903 15.3043 7.09455 15.3966C7.06008 15.4889 7.00777 15.5734 6.94061 15.6455C6.87344 15.7176 6.79274 15.7757 6.70312 15.8166C6.1003 16.0913 4.76999 16.9753 4.53562 19.4644C7.02468 19.23 7.91062 17.8997 8.18343 17.2969C8.2243 17.2073 8.28243 17.1266 8.35449 17.0594C8.42655 16.9922 8.51114 16.9399 8.60342 16.9054C8.69569 16.871 8.79386 16.855 8.89231 16.8585C8.99075 16.8619 9.08755 16.8848 9.17718 16.9256C9.26681 16.9665 9.34751 17.0246 9.41467 17.0967C9.48183 17.1688 9.53414 17.2533 9.56862 17.3456C9.60309 17.4379 9.61905 17.5361 9.61559 17.6345C9.61212 17.733 9.5893 17.8298 9.54843 17.9194H9.54749Z" fill="#FF8230"/>
</svg>
