<svg width="39" height="39" viewBox="0 0 39 39" fill="none" xmlns="http://www.w3.org/2000/svg">
<path d="M17.8623 24.0582C19.4957 22.9707 20.7359 21.3865 21.3993 19.5397C22.0627 17.693 22.1142 15.6817 21.5461 13.8035C20.9781 11.9252 19.8207 10.2795 18.245 9.10994C16.6694 7.94033 14.7592 7.30884 12.7969 7.30884C10.8346 7.30884 8.92436 7.94033 7.34871 9.10994C5.77307 10.2795 4.61565 11.9252 4.04761 13.8035C3.47956 15.6817 3.53106 17.693 4.19448 19.5397C4.85789 21.3865 6.09801 22.9707 7.73144 24.0582C4.77672 25.1472 2.25332 27.1624 0.537773 29.8031C0.447609 29.9371 0.384982 30.0877 0.35353 30.2461C0.322079 30.4045 0.322431 30.5676 0.354566 30.7259C0.386701 30.8842 0.449979 31.0345 0.54072 31.1681C0.631461 31.3017 0.747856 31.416 0.88314 31.5042C1.01842 31.5924 1.1699 31.6529 1.32875 31.6821C1.48761 31.7113 1.65069 31.7086 1.8085 31.6742C1.96631 31.6398 2.11571 31.5744 2.24801 31.4817C2.38032 31.3891 2.49289 31.2711 2.57918 31.1345C3.68579 29.4325 5.20003 28.0339 6.98441 27.0657C8.76878 26.0975 10.7667 25.5904 12.7969 25.5904C14.827 25.5904 16.825 26.0975 18.6093 27.0657C20.3937 28.0339 21.908 29.4325 23.0146 31.1345C23.1933 31.4002 23.4695 31.5849 23.7833 31.6486C24.0971 31.7123 24.4234 31.6499 24.6916 31.475C24.9598 31.3001 25.1483 31.0266 25.2165 30.7137C25.2847 30.4009 25.2271 30.0737 25.056 29.8031C23.3404 27.1624 20.817 25.1472 17.8623 24.0582ZM6.09375 16.4532C6.09375 15.1274 6.48688 13.8314 7.22343 12.7291C7.95998 11.6268 9.00686 10.7676 10.2317 10.2603C11.4565 9.75295 12.8043 9.6202 14.1046 9.87885C15.4049 10.1375 16.5992 10.7759 17.5367 11.7133C18.4741 12.6508 19.1126 13.8452 19.3712 15.1455C19.6298 16.4457 19.4971 17.7935 18.9898 19.0183C18.4824 20.2432 17.6233 21.2901 16.5209 22.0266C15.4186 22.7632 14.1226 23.1563 12.7969 23.1563C11.0197 23.1543 9.31592 22.4474 8.05927 21.1908C6.80263 19.9341 6.09576 18.2303 6.09375 16.4532ZM38.1073 31.4895C37.8365 31.666 37.5068 31.7278 37.1905 31.6612C36.8743 31.5947 36.5974 31.4052 36.4208 31.1345C35.3155 29.4315 33.8015 28.0323 32.0167 27.0645C30.232 26.0967 28.2334 25.5911 26.2031 25.5938C25.8799 25.5938 25.5699 25.4654 25.3413 25.2368C25.1128 25.0083 24.9844 24.6983 24.9844 24.375C24.9844 24.0518 25.1128 23.7418 25.3413 23.5133C25.5699 23.2847 25.8799 23.1563 26.2031 23.1563C27.1903 23.1554 28.165 22.9364 29.0577 22.5151C29.9504 22.0938 30.7391 21.4805 31.3673 20.7191C31.9955 19.9576 32.4478 19.0668 32.6919 18.1103C32.9359 17.1538 32.9657 16.1552 32.779 15.1859C32.5924 14.2166 32.194 13.3004 31.6123 12.5029C31.0305 11.7054 30.2798 11.0462 29.4138 10.5724C28.5478 10.0987 27.5878 9.82207 26.6024 9.76233C25.6171 9.7026 24.6307 9.86122 23.7138 10.2269C23.5643 10.2915 23.4034 10.3255 23.2405 10.3269C23.0777 10.3283 22.9162 10.297 22.7656 10.2349C22.615 10.1728 22.4784 10.0812 22.3639 9.96538C22.2493 9.84961 22.1591 9.71204 22.0986 9.56082C22.0382 9.4096 22.0086 9.24778 22.0117 9.08494C22.0148 8.9221 22.0505 8.76153 22.1167 8.61273C22.1829 8.46392 22.2783 8.3299 22.3972 8.21857C22.5161 8.10725 22.6561 8.02088 22.8089 7.96458C24.9074 7.12768 27.2414 7.09756 29.3608 7.88004C31.4802 8.66251 33.2347 10.2021 34.2859 12.2019C35.337 14.2016 35.6104 16.5198 35.0532 18.7093C34.496 20.8987 33.1478 22.8042 31.2686 24.0582C34.2233 25.1472 36.7467 27.1624 38.4622 29.8031C38.6388 30.0738 38.7005 30.4035 38.634 30.7198C38.5674 31.036 38.3779 31.3129 38.1073 31.4895Z" fill="#FF8230"/>
</svg>
